HIERARCHY
ROOT Hips
{
	OFFSET -0.179506 -22.333345 2.821913
	CHANNELS 6 Xposition Yposition Zposition Zrotation Yrotation Xrotation 
	JOINT LeftUpLeg
	{
		OFFSET 6.951974 -9.140623 -0.681533
		CHANNELS 3 Zrotation Yrotation Xrotation
		JOINT LeftLeg
		{
			OFFSET 3.427654 -37.519855 -0.449580
			CHANNELS 3 Zrotation Yrotation Xrotation
			JOINT LeftFoot
			{
				OFFSET -1.359570 -39.796059 -4.369333
				CHANNELS 3 Zrotation Yrotation Xrotation
				JOINT LeftToe
				{
					OFFSET 2.635814 -5.579078 11.928840
					CHANNELS 3 Zrotation Yrotation Xrotation
					End Site
					{
						OFFSET 0.000000 0.000000 0.000000
					}
				}
			}
		}
	}
	JOINT RightUpLeg
	{
		OFFSET -6.767048 -9.052170 -0.431982
		CHANNELS 3 Zrotation Yrotation Xrotation
		JOINT RightLeg
		{
			OFFSET -3.829005 -38.256897 -0.885003
			CHANNELS 3 Zrotation Yrotation Xrotation
			JOINT RightFoot
			{
				OFFSET 1.577377 -39.841461 -4.231180
				CHANNELS 3 Zrotation Yrotation Xrotation
				JOINT RightToe
				{
					OFFSET -2.537174 -4.814398 12.334795
					CHANNELS 3 Zrotation Yrotation Xrotation
					End Site
					{
						OFFSET 0.000000 0.000000 0.000000
					}
				}
			}
		}
	}
	JOINT Spine
	{
		OFFSET -0.253288 10.896323 -2.669631
		CHANNELS 3 Zrotation Yrotation Xrotation
		JOINT Spine1
		{
			OFFSET 0.548704 13.518043 0.109247
			CHANNELS 3 Zrotation Yrotation Xrotation
			JOINT Spine2
			{
				OFFSET 0.145701 5.292222 2.542457
				CHANNELS 3 Zrotation Yrotation Xrotation
				JOINT Neck
				{
					OFFSET -0.277840 21.387037 -4.285703
					CHANNELS 3 Zrotation Yrotation Xrotation
					JOINT Head
					{
						OFFSET 0.515184 6.496960 5.134897
						CHANNELS 3 Zrotation Yrotation Xrotation
						End Site
						{
							OFFSET 0.000000 0.000000 0.000000
						}
					}
				}
				JOINT LeftShoulder
				{
					OFFSET 7.884473 12.174932 -3.408961
					CHANNELS 3 Zrotation Yrotation Xrotation
					JOINT LeftArm
					{
						OFFSET 9.097692 3.046888 -0.886815
						CHANNELS 3 Zrotation Yrotation Xrotation
						JOINT LeftForeArm
						{
							OFFSET 25.961220 -1.277207 -2.745643
							CHANNELS 3 Zrotation Yrotation Xrotation
							JOINT LeftHand
							{
								OFFSET 24.923361 0.898606 -0.117091
								CHANNELS 3 Zrotation Yrotation Xrotation
								End Site
								{
									OFFSET 0.000000 0.000000 0.000000
								}
							}
						}
					}
				}
				JOINT RightShoulder
				{
					OFFSET -8.175920 11.883285 -3.861528
					CHANNELS 3 Zrotation Yrotation Xrotation
					JOINT RightArm
					{
						OFFSET -9.601238 3.255117 -0.914307
						CHANNELS 3 Zrotation Yrotation Xrotation
						JOINT RightForeArm
						{
							OFFSET -25.374195 -1.332924 -2.140099
							CHANNELS 3 Zrotation Yrotation Xrotation
							JOINT RightHand
							{
								OFFSET -25.529810 0.777228 -0.555919
								CHANNELS 3 Zrotation Yrotation Xrotation
								End Site
								{
									OFFSET 0.000000 0.000000 0.000000
								}
							}
						}
					}
				}
			}
		}
	}
}
MOTION
Frames: 13
Frame Time: 0.033333
-50.154305 -105.389786 81.657104 -177.010215 1.311921 89.374022 2.797028 -0.440375 8.398303 -1.832794 3.622613 68.372643 -2.007365 15.916063 -24.886776 nan nan nan -5.548758 4.185168 -39.969273 -5.650221 -17.895590 58.183673 0.686102 -11.910096 -33.338984 nan nan nan 4.675359 -9.452312 30.881568 3.893451 0.034930 -3.312458 1.758216 -2.661842 1.604996 -3.018589 5.451141 -7.890152 -2.554080 1.900871 0.513726 -22.885777 -10.791455 -1.454235 -49.802030 -17.743529 14.721343 5.471824 -50.659141 3.639224 8.388155 -17.384479 -16.338660 24.658723 9.222335 3.501677 53.110022 -6.696354 14.303918 -13.231347 35.220179 -10.377897 -17.318820 13.810715 -10.943799 
-50.060089 -103.467552 81.422325 -178.089308 1.310337 89.308303 2.381999 -0.812410 5.247390 -1.718023 4.725059 71.052882 -2.154557 15.144578 -26.798124 nan nan nan -5.091247 4.465352 -39.101553 -5.623152 -17.210986 58.985105 0.904524 -11.913350 -33.659862 nan nan nan 4.607413 -8.910424 32.392290 3.881673 0.138104 -4.070647 1.800779 -2.341239 1.916680 -2.692574 5.521295 -8.147484 -2.914088 2.045968 0.384320 -23.228238 -10.526173 -1.531101 -49.651566 -16.577622 14.688072 4.699980 -49.442099 4.124073 8.254242 -17.153426 -16.447799 24.703578 9.735187 2.826919 52.431558 -5.321120 14.671802 -13.169058 34.784055 -10.649993 -17.340286 13.830632 -10.808428 
-49.972931 -101.566658 81.148643 -179.173317 1.256042 89.282127 2.010047 -1.309503 1.876630 -1.577228 5.955069 73.510368 -2.156208 14.531903 -28.390661 nan nan nan -4.824844 4.571581 -38.227454 -5.510946 -16.691706 59.730782 1.109917 -11.946891 -33.954720 nan nan nan 4.408359 -8.155399 33.690095 3.984358 0.061956 -4.554474 1.926747 -2.060865 2.074674 -2.308591 5.809647 -8.207051 -3.370152 2.122210 0.196953 -23.540850 -10.233744 -1.481598 -49.573529 -15.451066 14.624549 4.116171 -48.216134 4.607215 9.101379 -16.832959 -16.132825 24.894557 10.285233 2.433133 51.474332 -3.774124 14.989690 -13.070890 34.594993 -10.875385 -17.791331 13.775158 -10.774713 
-49.853928 -99.606674 80.889320 179.441517 1.159831 89.224955 1.740270 -1.444660 -1.562804 -1.138461 7.183507 75.676735 -2.005320 14.305254 -29.746071 nan nan nan -4.398942 4.658718 -37.416939 -5.567120 -15.850342 60.583998 1.034722 -11.816180 -34.235253 nan nan nan 4.385941 -7.430595 35.096131 3.680265 0.288707 -5.159881 1.976426 -1.663338 2.177474 -2.583009 5.308279 -8.111472 -3.110914 2.509057 -0.249080 -24.170644 -10.451945 -1.500861 -49.055796 -13.654782 14.165786 3.388165 -47.114765 4.951339 9.440305 -16.656616 -14.537584 25.343240 11.393302 2.277093 50.890627 -3.002789 14.376777 -13.551338 34.663581 -12.357555 -17.756389 13.975708 -9.506671 
-49.643661 -97.664642 80.631744 177.882676 1.267429 89.047524 2.010439 -1.475895 -5.003299 -0.716297 8.454806 77.632320 -2.095611 14.010424 -30.947722 nan nan nan -3.866873 5.168822 -36.383790 -5.674548 -15.339383 61.350151 1.049092 -11.428762 -34.614299 nan nan nan 4.132567 -6.571661 36.724778 3.549086 0.607774 -5.713617 2.115387 -1.205777 2.245818 -2.476829 5.404762 -8.139698 -3.131233 2.442551 -0.505124 -24.627891 -10.413830 -1.386555 -48.815981 -12.160761 13.918464 2.680269 -45.857103 5.158632 10.224561 -16.729167 -13.987281 25.729872 12.261179 2.025994 50.145397 -1.810943 14.115418 -13.494220 34.486246 -13.035698 -18.452157 14.339707 -9.345143 
-49.452770 -95.748634 80.342392 176.405458 1.423494 88.933426 2.521222 -1.940517 -8.623861 -0.401682 9.923472 79.367057 -2.177550 13.653948 -31.954481 nan nan nan -3.493793 5.673113 -35.374368 -5.575949 -15.063279 62.007203 1.039338 -11.189663 -35.207028 nan nan nan 3.908873 -5.660662 38.136006 3.532821 0.856335 -6.080886 2.258076 -0.834267 2.376644 -2.240940 5.745029 -8.379349 -3.371272 2.304119 -0.900634 -25.056422 -10.179214 -1.309863 -48.712672 -10.872822 13.759227 1.957157 -44.513899 5.607557 10.849957 -16.668281 -13.770744 25.822046 13.016202 1.796646 49.418225 -0.266513 14.144812 -13.340080 34.238977 -12.860260 -18.973596 14.657469 -9.180299 
-49.372482 -93.851540 80.003265 174.987120 1.422948 88.975952 2.890748 -2.519327 -12.580386 0.159032 11.380647 80.939137 -2.163130 13.607338 -32.855902 nan nan nan -3.284650 5.746385 -34.602291 -5.306077 -14.416107 62.716720 0.815156 -11.131975 -35.981256 nan nan nan 3.773974 -4.714358 39.186812 3.486767 0.948628 -6.325324 2.335005 -0.562062 2.574468 -2.124055 5.937043 -8.901210 -3.601749 2.267774 -1.105789 -25.519788 -10.054925 -1.158351 -48.643054 -9.469011 13.521469 1.581501 -43.304461 5.990736 10.868671 -16.349740 -12.916536 25.999807 13.865682 1.744048 48.514823 1.297415 14.077217 -13.475621 34.297436 -12.960030 -19.269021 14.772967 -8.657552 
-49.339066 -91.939445 79.634109 173.538116 1.319648 89.145633 3.337516 -3.047008 -16.714153 0.786915 12.947917 82.173787 -2.192080 13.924869 -33.564526 nan nan nan -3.223022 5.557059 -34.001360 -4.916396 -13.595214 63.506125 0.673664 -10.869505 -36.770654 nan nan nan 3.581759 -3.807232 40.044969 3.412277 0.926535 -6.537474 2.292375 -0.196955 2.749861 -2.013690 6.231805 -9.504153 -3.767138 2.134026 -1.091170 -25.866074 -9.806999 -1.091788 -48.640188 -7.973460 13.413386 1.166562 -42.145724 6.397889 10.846412 -16.244645 -12.606761 26.276855 14.660114 1.748998 47.727498 3.049706 13.900103 -13.762438 34.214506 -13.643943 -19.732062 14.852402 -8.542002 
-49.299107 -90.000862 79.246300 172.080583 1.343269 89.241042 4.136516 -3.425974 -20.762041 1.325280 14.403427 83.114089 -2.313568 14.294805 -33.969390 nan nan nan -3.075728 5.312336 -33.262946 -4.518013 -12.831401 64.268354 0.563719 -10.605587 -37.722765 nan nan nan 3.524606 -3.032558 40.932268 3.239940 0.952920 -6.668118 2.169738 0.157543 2.809163 -1.956212 6.592391 -10.145997 -3.794572 1.924637 -0.929769 -26.049203 -9.431108 -1.120457 -48.699786 -6.412442 13.316903 0.599731 -40.852516 7.097011 10.943190 -16.526787 -13.263790 26.315861 15.440709 1.811136 47.298785 4.765204 13.823795 -13.989054 34.294262 -13.771163 -21.012484 15.383574 -9.236738 
-49.199482 -88.015587 78.879623 170.554994 1.536678 89.131583 5.285561 -3.411941 -24.433204 1.928352 15.531119 83.647474 -2.469675 14.243765 -34.243637 nan nan nan -2.636697 5.126275 -32.064919 -4.283403 -12.052930 64.738518 0.291937 -10.522415 -38.761374 nan nan nan 3.544006 -2.192530 41.995806 3.031680 1.051925 -6.762842 2.131296 0.501370 2.772081 -1.860054 6.953150 -10.657440 -3.892746 1.756568 -0.807695 -26.225715 -9.108548 -0.988233 -48.802992 -4.871713 12.953259 -0.018265 -39.478022 8.166864 11.022410 -16.786735 -13.693072 26.332279 16.269335 2.031806 46.817227 6.420462 13.479683 -14.173599 34.560792 -13.688495 -22.731290 15.845510 -10.014121 
-49.085587 -85.923279 78.537491 168.955804 1.727681 88.721052 6.434881 -3.018076 -27.527075 2.526629 16.319583 83.716328 -2.674089 13.901050 -34.398055 nan nan nan -2.184805 4.993361 -30.324692 -4.143351 -11.142645 65.150153 0.042518 -10.121115 -39.713882 nan nan nan 3.465200 -1.310108 43.219813 2.796397 1.164175 -6.762122 2.184837 0.949644 2.696690 -1.806432 7.413339 -10.952085 -3.980304 1.566938 -0.894553 -26.444489 -8.934058 -0.780574 -48.979490 -3.272983 12.454180 -0.591858 -38.038567 9.153661 11.170222 -16.898940 -13.784393 26.438959 17.154931 2.451424 46.172795 7.970066 12.808353 -14.450476 35.140443 -13.868788 -24.815313 16.410335 -10.715972 
-49.006435 -83.737389 78.197746 167.305813 1.718035 88.230840 7.428545 -2.573566 -30.270533 2.797015 17.066335 83.241627 -2.603747 13.511881 -34.478637 nan nan nan -2.140063 4.919257 -28.469682 -3.831759 -10.176800 65.684301 0.038439 -9.401416 -40.538017 nan nan nan 3.199235 -0.399788 44.332795 2.493027 1.229334 -6.479668 2.204765 1.445764 2.386495 -1.743934 7.888753 -11.012919 -4.046816 1.334016 -1.289233 -26.643468 -8.801986 -0.482248 -49.008222 -1.590635 12.009655 -1.457804 -36.515041 10.263928 11.458244 -17.158319 -13.762545 26.500694 18.113411 2.915880 45.616726 9.414421 12.163531 -14.663869 35.786998 -14.162294 -27.154920 17.187446 -11.133366 
-48.959740 -81.529533 77.824631 165.522827 1.561870 87.884660 8.348657 -1.901953 -32.976055 2.830655 17.815982 82.346190 -2.424571 12.911617 -34.527885 nan nan nan -2.263077 4.552443 -26.787142 -3.426520 -8.868928 66.081234 0.003394 -8.802931 -41.569442 nan nan nan 2.848639 0.609516 45.157797 2.098709 1.279551 -6.115325 2.206491 1.976082 2.099271 -1.756525 8.299127 -11.197798 -4.116042 1.063970 -1.729742 -26.841487 -8.489157 -0.342683 -48.893944 0.124756 11.654692 -2.722502 -35.069337 11.935511 11.946178 -17.106609 -13.646736 26.464937 18.889853 3.284413 45.165736 10.774282 11.687470 -14.971008 36.831299 -14.209707 -29.250067 17.635985 -10.924986 
